<svg xmlns:xlink="http://www.w3.org/1999/xlink" xmlns="http://www.w3.org/2000/svg" width="18" height="18" viewBox="0 0 18 18">
                                <path fill-rule="evenodd" clip-rule="evenodd" d="M2.12018 0.574918C2.31702 0.378368 2.55339 0.225896 2.81362 0.127607C3.07385 0.0293176 3.352 -0.0125448 3.62963 0.00479393C3.90727 0.0221327 4.17805 0.0982766 4.42402 0.22818C4.67 0.358083 4.88557 0.538779 5.05643 0.758293L7.0758 3.35254C7.44593 3.82842 7.57643 4.44829 7.43018 5.03329L6.8148 7.49704C6.78299 7.62465 6.78471 7.75832 6.81979 7.88507C6.85488 8.01182 6.92214 8.12734 7.01505 8.22042L9.77918 10.9845C9.87237 11.0776 9.98808 11.145 10.115 11.1801C10.242 11.2152 10.3759 11.2168 10.5037 11.1848L12.9663 10.5694C13.255 10.4972 13.5563 10.4916 13.8475 10.553C14.1387 10.6144 14.4121 10.7412 14.6471 10.9238L17.2413 12.942C18.1739 13.6677 18.2594 15.0458 17.4247 15.8794L16.2614 17.0427C15.4289 17.8752 14.1847 18.2408 13.0248 17.8324C10.0561 16.7879 7.36073 15.0884 5.13855 12.8599C2.91025 10.6381 1.21074 7.94306 0.166053 4.97479C-0.241197 3.81604 0.124428 2.57067 0.956928 1.73817L2.12018 0.574918Z" fill="#49d4ff"/>
                            </svg>