<svg xmlns:xlink="http://www.w3.org/1999/xlink" xmlns="http://www.w3.org/2000/svg" width="180" height="150" viewBox="0 0 187.3 93.7" preserveAspectRatio="xMidYMid meet" style="left: 50%; top: 50%; position: absolute; transform: translate(-50%, -50%) matrix(1, 0, 0, 1, 0, 0);">
                            <path stroke="#E6004C" id="outline" fill="none" stroke-width="4px" stroke-linecap="round" stroke-linejoin="round" stroke-miterlimit="10" d="M93.9,46.4c9.3,9.5,13.8,17.9,23.5,17.9s17.5-7.8,17.5-17.5s-7.8-17.6-17.5-17.5c-9.7,0.1-13.3,7.2-22.1,17.1 c-8.9,8.8-15.7,17.9-25.4,17.9s-17.5-7.8-17.5-17.5s7.8-17.5,17.5-17.5S86.2,38.6,93.9,46.4z"></path>
                            <path id="outline-bg" opacity="0.05" fill="none" stroke="#E6004C" stroke-width="4px" stroke-linecap="round" stroke-linejoin="round" stroke-miterlimit="10" d="M93.9,46.4c9.3,9.5,13.8,17.9,23.5,17.9s17.5-7.8,17.5-17.5s-7.8-17.6-17.5-17.5c-9.7,0.1-13.3,7.2-22.1,17.1 c-8.9,8.8-15.7,17.9-25.4,17.9s-17.5-7.8-17.5-17.5s7.8-17.5,17.5-17.5S86.2,38.6,93.9,46.4z"></path>
                        </svg>